<svg xmlns="http://www.w3.org/2000/svg" viewBox="0 0 180 134" role="img" aria-labelledby="title">
  <title id="title">Triple Whale</title>
  <path fill="#0c70f2" fill-rule="evenodd" d="M122.99 129.94c.24 2.07-1.43 3.79-3.5 3.79H67.16a3.57 3.57 0 0 1-3.6-3.6V57.17a3.78 3.78 0 0 0-3.29-3.73C49.25 51.73 13.87 43.07.2 4.76A3.55 3.55 0 0 1 3.43.06h39.6c32.72 1.43 57.27 22.36 67.15 50.74l.06-.06c8.22 23.7 11.82 66.3 12.75 79.2Z"/>
  <path fill="#0c70f2" fill-rule="evenodd" d="M179.12 4.14c-12.89 37.08-39.39 45.68-54.71 48.9a3.45 3.45 0 0 1-3.63-2.31c-4.88-17.26-11.67-26.72-20.48-34.87-1.49-1.37-1.43-3.79.29-4.88C110.9 4.16 123.63.04 139.52.02V0h36.6a3.18 3.18 0 0 1 3 4.14Z"/>
</svg>
